<svg width="64" height="64" viewBox="0 0 64 64" fill="none" xmlns="http://www.w3.org/2000/svg">
<circle cx="32" cy="32" r="32" fill="#FCBE04" fill-opacity="0.1"/>
<path d="M49.4 32.7625L45.65 24.0125C45.5543 23.7866 45.3942 23.5938 45.1897 23.4582C44.9852 23.3226 44.7454 23.2502 44.5 23.25H40.75V20.75C40.75 20.4185 40.6183 20.1005 40.3839 19.8661C40.1495 19.6317 39.8315 19.5 39.5 19.5H15.75C15.4185 19.5 15.1005 19.6317 14.8661 19.8661C14.6317 20.1005 14.5 20.4185 14.5 20.75V42C14.5 42.3315 14.6317 42.6495 14.8661 42.8839C15.1005 43.1183 15.4185 43.25 15.75 43.25H18.425C18.7129 44.3092 19.3413 45.2443 20.2132 45.9109C21.0852 46.5776 22.1524 46.9388 23.25 46.9388C24.3476 46.9388 25.4148 46.5776 26.2868 45.9109C27.1587 45.2443 27.7871 44.3092 28.075 43.25H35.925C36.2129 44.3092 36.8413 45.2443 37.7132 45.9109C38.5852 46.5776 39.6524 46.9388 40.75 46.9388C41.8476 46.9388 42.9148 46.5776 43.7868 45.9109C44.6587 45.2443 45.2871 44.3092 45.575 43.25H48.25C48.5815 43.25 48.8995 43.1183 49.1339 42.8839C49.3683 42.6495 49.5 42.3315 49.5 42V33.25C49.4997 33.0824 49.4657 32.9167 49.4 32.7625ZM40.75 25.75H43.675L46.35 32H40.75V25.75ZM23.25 44.5C22.7555 44.5 22.2722 44.3534 21.8611 44.0787C21.45 43.804 21.1295 43.4135 20.9403 42.9567C20.7511 42.4999 20.7016 41.9972 20.798 41.5123C20.8945 41.0273 21.1326 40.5819 21.4822 40.2322C21.8319 39.8826 22.2773 39.6445 22.7623 39.548C23.2472 39.4516 23.7499 39.5011 24.2067 39.6903C24.6635 39.8795 25.054 40.1999 25.3287 40.6111C25.6034 41.0222 25.75 41.5055 25.75 42C25.75 42.663 25.4866 43.2989 25.0178 43.7678C24.5489 44.2366 23.913 44.5 23.25 44.5ZM35.925 40.75H28.075C27.7871 39.6908 27.1587 38.7557 26.2868 38.0891C25.4148 37.4224 24.3476 37.0612 23.25 37.0612C22.1524 37.0612 21.0852 37.4224 20.2132 38.0891C19.3413 38.7557 18.7129 39.6908 18.425 40.75H17V22H38.25V37.7C37.6808 38.0304 37.1824 38.4698 36.7834 38.9932C36.3845 39.5166 36.0927 40.1136 35.925 40.75ZM40.75 44.5C40.2555 44.5 39.7722 44.3534 39.3611 44.0787C38.9499 43.804 38.6295 43.4135 38.4403 42.9567C38.2511 42.4999 38.2016 41.9972 38.298 41.5123C38.3945 41.0273 38.6326 40.5819 38.9822 40.2322C39.3319 39.8826 39.7773 39.6445 40.2623 39.548C40.7472 39.4516 41.2499 39.5011 41.7067 39.6903C42.1635 39.8795 42.554 40.1999 42.8287 40.6111C43.1034 41.0222 43.25 41.5055 43.25 42C43.25 42.663 42.9866 43.2989 42.5178 43.7678C42.0489 44.2366 41.413 44.5 40.75 44.5ZM47 40.75H45.575C45.2986 39.6794 44.6751 38.7306 43.8021 38.0521C42.929 37.3736 41.8557 37.0036 40.75 37V34.5H47V40.75Z" fill="#FCBE04"/>
</svg>
