<svg width="64" height="64" viewBox="0 0 64 64" fill="none" xmlns="http://www.w3.org/2000/svg">
<circle cx="32" cy="32" r="32" fill="#1976D2" fill-opacity="0.1"/>
<path d="M46.4531 22.6289V17.625C46.4531 16.9336 45.8945 16.375 45.2031 16.375H18.7969C18.1055 16.375 17.5469 16.9336 17.5469 17.625V22.6289C16.8945 22.668 16.375 23.2109 16.375 23.875V29.0195C16.3725 29.965 16.5639 30.901 16.9375 31.7695C17.1055 32.168 17.3125 32.543 17.5469 32.8984V46.375C17.5469 47.0625 18.1055 47.625 18.7969 47.625H45.2031C45.8945 47.625 46.4531 47.0664 46.4531 46.375V32.8984C46.6912 32.5421 46.8952 32.1641 47.0625 31.7695C47.4336 30.8984 47.625 29.9727 47.625 29.0195V23.875C47.625 23.2109 47.1055 22.668 46.4531 22.6289ZM20.3594 19.1875H43.6406V22.625H20.3594V19.1875ZM34.5 44.8164H29.5V40.75H34.5V44.8164ZM43.6406 44.8164H37V39.5C37 38.8086 36.4414 38.25 35.75 38.25H28.25C27.5586 38.25 27 38.8086 27 39.5V44.8164H20.3594V35.3555C20.4726 35.4102 20.5898 35.4648 20.7109 35.5117C21.582 35.8789 22.5078 36.0625 23.4609 36.0625C24.4141 36.0625 25.3359 35.8789 26.2109 35.5117C26.75 35.2852 27.2578 34.9961 27.7226 34.6484C27.7305 34.6445 27.7383 34.6445 27.7461 34.6484C28.2124 34.9976 28.7202 35.2875 29.2578 35.5117C30.1289 35.8789 31.0547 36.0625 32.0078 36.0625C32.9609 36.0625 33.8828 35.8789 34.7578 35.5117C35.2969 35.2852 35.8047 34.9961 36.2695 34.6484C36.2773 34.6445 36.2851 34.6445 36.293 34.6484C36.7593 34.9976 37.267 35.2875 37.8047 35.5117C38.6758 35.8789 39.6016 36.0625 40.5547 36.0625C41.5078 36.0625 42.4297 35.8789 43.3047 35.5117C43.4219 35.4609 43.5391 35.4102 43.6562 35.3555V44.8164H43.6406ZM44.8125 29.0195C44.8125 31.3555 42.8984 33.25 40.543 33.25C38.9492 33.25 37.5586 32.3867 36.8242 31.1055C36.7109 30.9102 36.5078 30.7891 36.2812 30.7891H36.2578C36.0351 30.7891 35.8281 30.9102 35.7148 31.1055C35.3401 31.759 34.7989 32.3018 34.1465 32.6784C33.494 33.0551 32.7534 33.2523 32 33.25C30.4101 33.25 29.0234 32.3906 28.2891 31.1133C28.1719 30.9141 27.9609 30.7891 27.7305 30.7891C27.5 30.7891 27.2851 30.9141 27.1719 31.1133C26.7949 31.7644 26.2531 32.3046 25.601 32.6798C24.9488 33.0549 24.2093 33.2515 23.457 33.25C21.1016 33.25 19.1875 31.3555 19.1875 29.0195V25.457C19.1875 25.4453 19.1953 25.4375 19.207 25.4375H44.793C44.8047 25.4375 44.8125 25.4453 44.8125 25.457V29.0195V29.0195Z" fill="#1976D2"/>
</svg>
