<svg width="31" height="30" viewBox="0 0 31 30" fill="none" xmlns="http://www.w3.org/2000/svg">
<path d="M15.0034 2.50249C8.10095 2.50249 2.5047 8.09874 2.5047 15.0012C2.5047 21.2387 7.0747 26.4087 13.0509 27.35V18.615H9.87595V15.0012H13.0509V12.2475C13.0509 9.11249 14.9172 7.38374 17.7709 7.38374C19.1384 7.38374 20.5709 7.62749 20.5709 7.62749V10.7012H18.9909C17.4409 10.7012 16.9559 11.6662 16.9559 12.655V14.9987H20.4197L19.8659 18.6125H16.9559V27.3475C22.9322 26.4112 27.5022 21.24 27.5022 15.0012C27.5022 8.09874 21.9059 2.50249 15.0034 2.50249V2.50249Z" fill="#1976D2"/>
</svg>
