<svg width="31" height="30" viewBox="0 0 31 30" fill="none" xmlns="http://www.w3.org/2000/svg">
<path d="M27.2591 12.5519H26.2522V12.5H15.0022V17.5H22.0666C21.0359 20.4106 18.2666 22.5 15.0022 22.5C10.8603 22.5 7.5022 19.1419 7.5022 15C7.5022 10.8581 10.8603 7.5 15.0022 7.5C16.9141 7.5 18.6534 8.22125 19.9778 9.39938L23.5134 5.86375C21.2809 3.78313 18.2947 2.5 15.0022 2.5C8.09907 2.5 2.5022 8.09688 2.5022 15C2.5022 21.9031 8.09907 27.5 15.0022 27.5C21.9053 27.5 27.5022 21.9031 27.5022 15C27.5022 14.1619 27.4159 13.3438 27.2591 12.5519Z" fill="#FFC107"/>
<path d="M3.94342 9.18187L8.0503 12.1937C9.16155 9.4425 11.8528 7.5 15.0022 7.5C16.914 7.5 18.6534 8.22125 19.9778 9.39937L23.5134 5.86375C21.2809 3.78312 18.2947 2.5 15.0022 2.5C10.2009 2.5 6.03717 5.21062 3.94342 9.18187Z" fill="#FF3D00"/>
<path d="M15.0022 27.5C18.231 27.5 21.1647 26.2644 23.3828 24.255L19.5141 20.9813C18.2169 21.9677 16.6319 22.5013 15.0022 22.5C11.751 22.5 8.99033 20.4269 7.95033 17.5338L3.87408 20.6744C5.94283 24.7225 10.1441 27.5 15.0022 27.5Z" fill="#4CAF50"/>
<path d="M27.2591 12.5519H26.2522V12.5H15.0022V17.5H22.0666C21.5736 18.8853 20.6855 20.0957 19.5122 20.9819L19.5141 20.9806L23.3828 24.2544C23.1091 24.5031 27.5022 21.25 27.5022 15C27.5022 14.1619 27.4159 13.3438 27.2591 12.5519Z" fill="#1976D2"/>
</svg>
