<svg width="64" height="64" viewBox="0 0 64 64" fill="none" xmlns="http://www.w3.org/2000/svg">
<circle cx="32" cy="32" r="32" fill="#1ED600" fill-opacity="0.1"/>
<path d="M31.6667 30.1667C27.8833 29.1833 26.6667 28.1667 26.6667 26.5833C26.6667 24.7667 28.35 23.5 31.1667 23.5C33.5333 23.5 34.7167 24.4 35.15 25.8333C35.35 26.5 35.9 27 36.6 27H37.1C38.2 27 38.9833 25.9167 38.6 24.8833C37.9 22.9167 36.2667 21.2833 33.6667 20.65V19.5C33.6667 18.1167 32.55 17 31.1667 17C29.7833 17 28.6667 18.1167 28.6667 19.5V20.6C25.4333 21.3 22.8333 23.4 22.8333 26.6167C22.8333 30.4667 26.0167 32.3833 30.6667 33.5C34.8333 34.5 35.6667 35.9667 35.6667 37.5167C35.6667 38.6667 34.85 40.5 31.1667 40.5C28.4167 40.5 27 39.5167 26.45 38.1167C26.2 37.4667 25.6333 37 24.95 37H24.4833C23.3667 37 22.5833 38.1333 23 39.1667C23.95 41.4833 26.1667 42.85 28.6667 43.3833V44.5C28.6667 45.8833 29.7833 47 31.1667 47C32.55 47 33.6667 45.8833 33.6667 44.5V43.4167C36.9167 42.8 39.5 40.9167 39.5 37.5C39.5 32.7667 35.45 31.15 31.6667 30.1667Z" fill="#4CAF50"/>
</svg>
