<svg width="75" height="75" viewBox="0 0 75 75" fill="none" xmlns="http://www.w3.org/2000/svg">
<circle cx="37.5" cy="37.5" r="37.5" fill="#FCBE04" fill-opacity="0.1"/>
<path d="M57.8906 38.3936L53.4961 28.1396C53.384 27.8749 53.1964 27.649 52.9567 27.4901C52.7171 27.3312 52.436 27.2463 52.1484 27.2461H47.7539V24.3164C47.7539 23.9279 47.5996 23.5553 47.3249 23.2806C47.0502 23.0059 46.6776 22.8516 46.2891 22.8516H18.457C18.0685 22.8516 17.6959 23.0059 17.4212 23.2806C17.1465 23.5553 16.9922 23.9279 16.9922 24.3164V49.2188C16.9922 49.6073 17.1465 49.9798 17.4212 50.2546C17.6959 50.5293 18.0685 50.6836 18.457 50.6836H21.5918C21.9291 51.9249 22.6655 53.0206 23.6874 53.8019C24.7093 54.5831 25.9598 55.0063 27.2461 55.0063C28.5324 55.0063 29.7829 54.5831 30.8048 53.8019C31.8267 53.0206 32.5631 51.9249 32.9004 50.6836H42.0996C42.4369 51.9249 43.1733 53.0206 44.1952 53.8019C45.2171 54.5831 46.4676 55.0063 47.7539 55.0063C49.0402 55.0063 50.2907 54.5831 51.3126 53.8019C52.3345 53.0206 53.0709 51.9249 53.4082 50.6836H56.543C56.9315 50.6836 57.3041 50.5293 57.5788 50.2546C57.8535 49.9798 58.0078 49.6073 58.0078 49.2188V38.9648C58.0074 38.7685 57.9676 38.5742 57.8906 38.3936ZM47.7539 30.1758H51.1816L54.3164 37.5H47.7539V30.1758ZM27.2461 52.1484C26.6667 52.1484 26.1002 51.9766 25.6184 51.6547C25.1367 51.3328 24.7612 50.8752 24.5394 50.3399C24.3177 49.8046 24.2597 49.2155 24.3727 48.6472C24.4857 48.0789 24.7648 47.5569 25.1745 47.1471C25.5842 46.7374 26.1062 46.4584 26.6745 46.3454C27.2428 46.2323 27.8319 46.2903 28.3672 46.5121C28.9026 46.7338 29.3601 47.1093 29.682 47.5911C30.004 48.0729 30.1758 48.6393 30.1758 49.2188C30.1758 49.9958 29.8671 50.7409 29.3177 51.2904C28.7683 51.8398 28.0231 52.1484 27.2461 52.1484ZM42.0996 47.7539H32.9004C32.5631 46.5126 31.8267 45.4169 30.8048 44.6356C29.7829 43.8544 28.5324 43.4312 27.2461 43.4312C25.9598 43.4312 24.7093 43.8544 23.6874 44.6356C22.6655 45.4169 21.9291 46.5126 21.5918 47.7539H19.9219V25.7812H44.8242V44.1797C44.1572 44.5668 43.5732 45.0818 43.1056 45.6952C42.6381 46.3085 42.2962 47.0081 42.0996 47.7539ZM47.7539 52.1484C47.1745 52.1484 46.608 51.9766 46.1263 51.6547C45.6445 51.3328 45.269 50.8752 45.0472 50.3399C44.8255 49.8046 44.7675 49.2155 44.8805 48.6472C44.9936 48.0789 45.2726 47.5569 45.6823 47.1471C46.092 46.7374 46.614 46.4584 47.1824 46.3454C47.7507 46.2323 48.3397 46.2903 48.875 46.5121C49.4104 46.7338 49.8679 47.1093 50.1899 47.5911C50.5118 48.0729 50.6836 48.6393 50.6836 49.2188C50.6836 49.9958 50.3749 50.7409 49.8255 51.2904C49.2761 51.8398 48.5309 52.1484 47.7539 52.1484ZM55.0781 47.7539H53.4082C53.0843 46.4993 52.3536 45.3875 51.3305 44.5923C50.3074 43.7972 49.0496 43.3636 47.7539 43.3594V40.4297H55.0781V47.7539Z" fill="#FCBE04"/>
</svg>
