<svg width="75" height="75" viewBox="0 0 75 75" fill="none" xmlns="http://www.w3.org/2000/svg">
<circle cx="37.5" cy="37.5" r="37.5" fill="#1ED600" fill-opacity="0.1"/>
<path d="M38.0493 35.2913C33.6153 34.1389 32.1893 32.9473 32.1893 31.0917C32.1893 28.9625 34.1622 27.478 37.4633 27.478C40.2371 27.478 41.6239 28.5328 42.1318 30.2127C42.3662 30.994 43.0108 31.58 43.8312 31.58H44.4172C45.7064 31.58 46.6245 30.3103 46.1752 29.0993C45.3548 26.7943 43.4405 24.8801 40.3933 24.1378V22.79C40.3933 21.1687 39.0846 19.86 37.4633 19.86C35.8421 19.86 34.5333 21.1687 34.5333 22.79V24.0792C30.7439 24.8996 27.6967 27.3608 27.6967 31.1307C27.6967 35.6429 31.4275 37.8893 36.8773 39.198C41.7607 40.37 42.7373 42.0889 42.7373 43.9055C42.7373 45.2533 41.7802 47.402 37.4633 47.402C34.2403 47.402 32.58 46.2495 31.9354 44.6087C31.6424 43.8469 30.9783 43.3 30.1774 43.3H29.6305C28.3217 43.3 27.4037 44.6283 27.892 45.8393C29.0054 48.5545 31.6033 50.1562 34.5333 50.7813V52.09C34.5333 53.7113 35.8421 55.02 37.4633 55.02C39.0846 55.02 40.3933 53.7113 40.3933 52.09V50.8203C44.2023 50.0976 47.23 47.8903 47.23 43.886C47.23 38.3385 42.4834 36.4438 38.0493 35.2913Z" fill="#4CAF50"/>
</svg>
