<svg width="75" height="75" viewBox="0 0 75 75" fill="none" xmlns="http://www.w3.org/2000/svg">
<circle cx="37.5" cy="37.5" r="37.5" fill="#00EB26" fill-opacity="0.2"/>
<path d="M58.8281 38.3311L54.4336 28.0771C54.3215 27.8124 54.1339 27.5865 53.8942 27.4276C53.6546 27.2687 53.3735 27.1838 53.0859 27.1836H48.6914V24.2539C48.6914 23.8654 48.5371 23.4928 48.2624 23.2181C47.9877 22.9434 47.6151 22.7891 47.2266 22.7891H19.3945C19.006 22.7891 18.6334 22.9434 18.3587 23.2181C18.084 23.4928 17.9297 23.8654 17.9297 24.2539V49.1562C17.9297 49.5448 18.084 49.9173 18.3587 50.1921C18.6334 50.4668 19.006 50.6211 19.3945 50.6211H22.5293C22.8666 51.8624 23.603 52.9581 24.6249 53.7394C25.6468 54.5206 26.8973 54.9438 28.1836 54.9438C29.4699 54.9438 30.7204 54.5206 31.7423 53.7394C32.7642 52.9581 33.5006 51.8624 33.8379 50.6211H43.0371C43.3744 51.8624 44.1108 52.9581 45.1327 53.7394C46.1546 54.5206 47.4051 54.9438 48.6914 54.9438C49.9777 54.9438 51.2282 54.5206 52.2501 53.7394C53.272 52.9581 54.0084 51.8624 54.3457 50.6211H57.4805C57.869 50.6211 58.2416 50.4668 58.5163 50.1921C58.791 49.9173 58.9453 49.5448 58.9453 49.1562V38.9023C58.9449 38.706 58.9051 38.5117 58.8281 38.3311ZM48.6914 30.1133H52.1191L55.2539 37.4375H48.6914V30.1133ZM28.1836 52.0859C27.6042 52.0859 27.0377 51.9141 26.5559 51.5922C26.0742 51.2703 25.6987 50.8127 25.4769 50.2774C25.2552 49.7421 25.1972 49.153 25.3102 48.5847C25.4232 48.0164 25.7023 47.4944 26.112 47.0846C26.5217 46.6749 27.0437 46.3959 27.612 46.2829C28.1803 46.1698 28.7694 46.2278 29.3047 46.4496C29.8401 46.6713 30.2976 47.0468 30.6195 47.5286C30.9415 48.0104 31.1133 48.5768 31.1133 49.1562C31.1133 49.9333 30.8046 50.6784 30.2552 51.2279C29.7058 51.7773 28.9606 52.0859 28.1836 52.0859ZM43.0371 47.6914H33.8379C33.5006 46.4501 32.7642 45.3544 31.7423 44.5731C30.7204 43.7919 29.4699 43.3687 28.1836 43.3687C26.8973 43.3687 25.6468 43.7919 24.6249 44.5731C23.603 45.3544 22.8666 46.4501 22.5293 47.6914H20.8594V25.7188H45.7617V44.1172C45.0947 44.5043 44.5107 45.0193 44.0431 45.6327C43.5756 46.246 43.2337 46.9456 43.0371 47.6914ZM48.6914 52.0859C48.112 52.0859 47.5455 51.9141 47.0638 51.5922C46.582 51.2703 46.2065 50.8127 45.9847 50.2774C45.763 49.7421 45.705 49.153 45.818 48.5847C45.9311 48.0164 46.2101 47.4944 46.6198 47.0846C47.0295 46.6749 47.5515 46.3959 48.1199 46.2829C48.6882 46.1698 49.2772 46.2278 49.8125 46.4496C50.3479 46.6713 50.8054 47.0468 51.1274 47.5286C51.4493 48.0104 51.6211 48.5768 51.6211 49.1562C51.6211 49.9333 51.3124 50.6784 50.763 51.2279C50.2136 51.7773 49.4684 52.0859 48.6914 52.0859ZM56.0156 47.6914H54.3457C54.0218 46.4368 53.2911 45.325 52.268 44.5298C51.2449 43.7347 49.9871 43.3011 48.6914 43.2969V40.3672H56.0156V47.6914Z" fill="#00EB26"/>
</svg>
