<svg width="60" height="60" viewBox="0 0 60 60" fill="none" xmlns="http://www.w3.org/2000/svg">
<path d="M10.58 37.126C9.704 37.126 8.912 36.976 8.204 36.676C7.508 36.376 6.956 35.944 6.548 35.38C6.14 34.816 5.93 34.15 5.918 33.382H8.618C8.654 33.898 8.834 34.306 9.158 34.606C9.494 34.906 9.95 35.056 10.526 35.056C11.114 35.056 11.576 34.918 11.912 34.642C12.248 34.354 12.416 33.982 12.416 33.526C12.416 33.154 12.302 32.848 12.074 32.608C11.846 32.368 11.558 32.182 11.21 32.05C10.874 31.906 10.406 31.75 9.806 31.582C8.99 31.342 8.324 31.108 7.808 30.88C7.304 30.64 6.866 30.286 6.494 29.818C6.134 29.338 5.954 28.702 5.954 27.91C5.954 27.166 6.14 26.518 6.512 25.966C6.884 25.414 7.406 24.994 8.078 24.706C8.75 24.406 9.518 24.256 10.382 24.256C11.678 24.256 12.728 24.574 13.532 25.21C14.348 25.834 14.798 26.71 14.882 27.838H12.11C12.086 27.406 11.9 27.052 11.552 26.776C11.216 26.488 10.766 26.344 10.202 26.344C9.71 26.344 9.314 26.47 9.014 26.722C8.726 26.974 8.582 27.34 8.582 27.82C8.582 28.156 8.69 28.438 8.906 28.666C9.134 28.882 9.41 29.062 9.734 29.206C10.07 29.338 10.538 29.494 11.138 29.674C11.954 29.914 12.62 30.154 13.136 30.394C13.652 30.634 14.096 30.994 14.468 31.474C14.84 31.954 15.026 32.584 15.026 33.364C15.026 34.036 14.852 34.66 14.504 35.236C14.156 35.812 13.646 36.274 12.974 36.622C12.302 36.958 11.504 37.126 10.58 37.126ZM27.9568 37H25.4368L19.7308 28.378V37H17.2108V24.418H19.7308L25.4368 33.058V24.418H27.9568V37ZM38.1511 34.606H33.1471L32.3191 37H29.6731L34.1911 24.418H37.1251L41.6431 37H38.9791L38.1511 34.606ZM37.4671 32.59L35.6491 27.334L33.8311 32.59H37.4671ZM50.8558 37L48.1378 32.77L45.6718 37H42.8278L46.7878 30.664L42.7738 24.436H45.6718L48.3898 28.648L50.8378 24.436H53.6818L49.7398 30.754L53.7538 37H50.8558Z" fill="#FCBE04"/>
</svg>
